# Blender v2.92.0 OBJ File: 'Wooden plank.blend'
# www.blender.org
mtllib Wooden plank.mtl
o Wooden_plank_Cube.005
v -0.232952 -0.053266 1.000000
v -0.232952 0.053266 1.000000
v -0.232952 -0.053266 -1.000000
v -0.232952 0.053266 -1.000000
v 0.232952 -0.053266 1.000000
v 0.232952 0.053266 1.000000
v 0.232952 -0.053266 -1.000000
v 0.232952 0.053266 -1.000000
v -0.232952 -0.053266 -0.600000
v -0.232952 -0.053266 -0.200000
v -0.232952 -0.053266 0.200000
v -0.232952 -0.053266 0.600000
v -0.232952 0.053266 0.600000
v -0.232952 0.053266 0.200000
v -0.232952 0.053266 -0.200000
v -0.232952 0.053266 -0.600000
v 0.232952 -0.053266 0.600000
v 0.232952 -0.053266 0.200000
v 0.232952 -0.053266 -0.200000
v 0.232952 -0.053266 -0.600000
v 0.232952 0.053266 -0.600000
v 0.232952 0.053266 -0.200000
v 0.232952 0.053266 0.200000
v 0.232952 0.053266 0.600000
vt 0.795450 0.142639
vt 0.795450 0.857361
vt 0.992417 0.857361
vt 0.992417 0.142639
vt 0.007583 0.142639
vt 0.007583 0.857361
vt 0.992417 0.857361
vt 0.992417 0.142639
vt 0.204550 0.142639
vt 0.204550 0.857361
vt 0.007583 0.857361
vt 0.007583 0.142639
vt 0.992417 0.142639
vt 0.992417 0.857361
vt 0.007583 0.857361
vt 0.007583 0.142639
vt 0.187500 0.200000
vt 0.812500 0.200000
vt 0.812500 0.000000
vt 0.187500 0.000000
vt 0.812500 0.600000
vt 0.187500 0.600000
vt 0.187500 0.400000
vt 0.812500 0.400000
vt 0.812500 0.600000
vt 0.187500 0.600000
vt 0.187500 0.400000
vt 0.812500 0.400000
vt 0.812500 0.600000
vt 0.187500 0.600000
vt 0.187500 0.400000
vt 0.812500 0.400000
vt 0.812500 0.600000
vt 0.187500 0.600000
vt 0.187500 0.400000
vt 0.812500 0.400000
vt 0.812500 0.600000
vt 0.187500 0.600000
vt 0.187500 0.400000
vt 0.812500 0.400000
vt 0.187500 1.000000
vt 0.812500 1.000000
vt 0.812500 0.800000
vt 0.187500 0.800000
vt 0.812500 0.600000
vt 0.187500 0.600000
vt 0.812500 0.400000
vt 0.187500 0.400000
vt 0.795450 0.857361
vt 0.795450 0.142639
vt 0.598483 0.857361
vt 0.598483 0.142639
vt 0.401517 0.857361
vt 0.401517 0.142639
vt 0.204550 0.857361
vt 0.204550 0.142639
vt 0.401517 0.857361
vt 0.401517 0.142639
vt 0.598483 0.857361
vt 0.598483 0.142639
vn -1.0000 0.0000 0.0000
vn 0.0000 0.0000 -1.0000
vn 1.0000 0.0000 0.0000
vn 0.0000 0.0000 1.0000
vn 0.0000 -1.0000 0.0000
vn 0.0000 1.0000 0.0000
usemtl Material.003
s off
f 9/1/1 16/2/1 4/3/1 3/4/1
f 3/5/2 4/6/2 8/7/2 7/8/2
f 17/9/3 24/10/3 6/11/3 5/12/3
f 5/13/4 6/14/4 2/15/4 1/16/4
f 12/17/5 17/18/5 5/19/5 1/20/5
f 24/21/6 13/22/6 2/23/6 6/24/6
f 8/25/6 4/26/6 16/27/6 21/28/6
f 21/29/6 16/30/6 15/31/6 22/32/6
f 22/33/6 15/34/6 14/35/6 23/36/6
f 23/37/6 14/38/6 13/39/6 24/40/6
f 3/41/5 7/42/5 20/43/5 9/44/5
f 9/44/5 20/43/5 19/45/5 10/46/5
f 10/46/5 19/45/5 18/47/5 11/48/5
f 11/48/5 18/47/5 17/18/5 12/17/5
f 7/8/3 8/7/3 21/49/3 20/50/3
f 20/50/3 21/49/3 22/51/3 19/52/3
f 19/52/3 22/51/3 23/53/3 18/54/3
f 18/54/3 23/53/3 24/10/3 17/9/3
f 1/16/1 2/15/1 13/55/1 12/56/1
f 12/56/1 13/55/1 14/57/1 11/58/1
f 11/58/1 14/57/1 15/59/1 10/60/1
f 10/60/1 15/59/1 16/2/1 9/1/1
